<svg xmlns="http://www.w3.org/2000/svg" width="42" height="42" viewBox="0 0 42 42">
  <g id="Group_5" data-name="Group 5" transform="translate(-94 -350)">
    <path id="Path_1" data-name="Path 1" d="M9,0H33a9,9,0,0,1,9,9V33a9,9,0,0,1-9,9H9a9,9,0,0,1-9-9V9A9,9,0,0,1,9,0Z" transform="translate(94 350)" fill="#0f141d"/>
    <g id="Group_4" data-name="Group 4" transform="translate(-13 -14)">
      <g id="Group_2" data-name="Group 2">
        <rect id="Rectangle_17" data-name="Rectangle 17" width="18" height="25" rx="1" transform="translate(119 374)" fill="#2a3347"/>
        <path id="Union_1" data-name="Union 1" d="M0,10V2A2,2,0,0,1,2,0H16.412a2,2,0,0,1,2,2v8Z" transform="translate(118.794 371)" fill="#0f141d"/>
      </g>
      <g id="Group_3" data-name="Group 3" transform="translate(-20)">
        <g id="Path_2" data-name="Path 2" transform="translate(138.294 370)" fill="none">
          <path d="M2.647,0H16.765a2.647,2.647,0,0,1,2.647,2.647V27.353A2.647,2.647,0,0,1,16.765,30H2.647A2.647,2.647,0,0,1,0,27.353V2.647A2.647,2.647,0,0,1,2.647,0Z" stroke="none"/>
          <path d="M 2.647062301635742 1 C 1.738872528076172 1 1.000001907348633 1.738870620727539 1.000001907348633 2.647060394287109 L 1.000001907348633 27.35293960571289 C 1.000001907348633 28.26112937927246 1.738872528076172 29 2.647062301635742 29 L 16.76470184326172 29 C 17.67289161682129 29 18.41176223754883 28.26112937927246 18.41176223754883 27.35293960571289 L 18.41176223754883 2.647060394287109 C 18.41176223754883 1.738870620727539 17.67289161682129 1 16.76470184326172 1 L 2.647062301635742 1 M 2.647062301635742 0 L 16.76470184326172 0 C 18.22663116455078 0 19.41176223754883 1.185129165649414 19.41176223754883 2.647060394287109 L 19.41176223754883 27.35293960571289 C 19.41176223754883 28.81487083435059 18.22663116455078 30 16.76470184326172 30 L 2.647062301635742 30 C 1.18513298034668 30 1.9073486328125e-06 28.81487083435059 1.9073486328125e-06 27.35293960571289 L 1.9073486328125e-06 2.647060394287109 C 1.9073486328125e-06 1.185129165649414 1.18513298034668 0 2.647062301635742 0 Z" stroke="none" fill="#07b68a"/>
        </g>
        <g id="Group_1" data-name="Group 1" transform="translate(140.765 382.618)">
          <rect id="Rectangle_3" data-name="Rectangle 3" width="3.882" height="8.96" rx="1.941" transform="translate(14.254 10.588) rotate(90)" fill="#07b68a"/>
          <rect id="Rectangle_8" data-name="Rectangle 8" width="3.882" height="3.882" rx="1.941" transform="translate(9.176) rotate(90)" fill="#3f4f6a"/>
          <rect id="Rectangle_9" data-name="Rectangle 9" width="3.882" height="3.882" rx="1.941" transform="translate(14.471 0) rotate(90)" fill="#0f141d"/>
          <rect id="Rectangle_10" data-name="Rectangle 10" width="3.882" height="3.882" rx="1.941" transform="translate(3.882) rotate(90)" fill="#3f4f6a"/>
          <rect id="Rectangle_11" data-name="Rectangle 11" width="3.882" height="3.882" rx="1.941" transform="translate(9.176 5.294) rotate(90)" fill="#3f4f6a"/>
          <rect id="Rectangle_12" data-name="Rectangle 12" width="3.882" height="3.882" rx="1.941" transform="translate(14.471 5.294) rotate(90)" fill="#0f141d"/>
          <rect id="Rectangle_13" data-name="Rectangle 13" width="3.882" height="3.882" rx="1.941" transform="translate(3.882 5.294) rotate(90)" fill="#3f4f6a"/>
          <rect id="Rectangle_14" data-name="Rectangle 14" width="3.882" height="3.882" rx="1.941" transform="translate(3.882 10.588) rotate(90)" fill="#3f4f6a"/>
        </g>
      </g>
    </g>
  </g>
</svg>
